<?xml version="1.0" standalone="no"?>
<!DOCTYPE svg PUBLIC "-//W3C//DTD SVG 20010904//EN"
 "http://www.w3.org/TR/2001/REC-SVG-20010904/DTD/svg10.dtd">
<svg version="1.0" xmlns="http://www.w3.org/2000/svg"
 width="700.000000pt" height="700.000000pt" viewBox="0 0 700.000000 700.000000"
 preserveAspectRatio="xMidYMid meet">
<metadata>
Created by potrace 1.11, written by Peter Selinger 2001-2013
</metadata>
<g transform="translate(0.000000,700.000000) scale(0.100000,-0.100000)"
fill="#000000" stroke="none">
<path d="M1495 6980 c-233 -50 -433 -164 -593 -335 -198 -212 -302 -475 -302
-765 0 -313 121 -595 348 -812 554 -529 1457 -363 1788 327 307 642 -46 1390
-744 1577 -115 30 -374 35 -497 8z m380 -271 c321 -59 581 -304 667 -628 28
-109 28 -296 -1 -406 -82 -310 -317 -542 -623 -615 -112 -27 -286 -27 -389 -1
-162 41 -284 110 -399 223 -171 170 -259 397 -247 638 11 213 80 376 225 531
121 129 274 218 437 252 84 18 249 21 330 6z"/>
<path d="M2070 6248 c-26 -7 -95 -69 -267 -241 l-233 -231 -88 86 c-48 48
-100 90 -116 94 -105 26 -200 -60 -181 -164 5 -30 33 -64 148 -181 155 -157
200 -187 264 -175 33 5 77 45 331 298 161 160 300 303 308 318 30 58 7 146
-48 181 -33 21 -78 27 -118 15z"/>
<path d="M3136 6970 c-83 -74 -66 -194 34 -234 37 -14 176 -16 1448 -16 1378
0 1408 0 1439 -20 69 -41 63 250 63 -3202 0 -3080 0 -3123 -20 -3155 -41 -69
186 -63 -2600 -63 -2786 0 -2559 -6 -2600 63 -20 31 -20 65 -20 1890 0 2017 3
1899 -55 1945 -31 25 -84 37 -120 28 -14 -4 -43 -22 -63 -41 l-37 -33 0 -1914
0 -1913 32 -67 c41 -88 113 -160 201 -201 l67 -32 2595 0 2595 0 67 32 c88 41
160 113 201 201 l32 67 0 3195 0 3195 -32 67 c-41 88 -113 160 -201 201 l-67
32 -1462 3 -1462 2 -35 -30z"/>
<path d="M3326 6449 c-133 -12 -180 -34 -207 -95 -26 -58 -19 -101 22 -149 39
-44 66 -49 230 -37 304 22 569 -30 830 -164 430 -220 726 -619 815 -1099 28
-148 26 -433 -4 -570 -46 -208 -120 -385 -227 -544 -35 -53 -73 -107 -83 -120
l-19 -23 -46 68 c-137 206 -329 370 -561 480 l-95 45 51 67 c113 149 141 254
136 507 -4 171 -6 184 -35 260 -105 279 -342 445 -633 445 -264 0 -496 -146
-610 -384 -47 -100 -60 -172 -60 -351 0 -231 31 -336 138 -477 l51 -67 -94
-45 c-233 -110 -411 -260 -558 -473 -38 -55 -54 -70 -63 -62 -26 21 -133 186
-173 266 -63 126 -97 218 -126 344 -15 63 -33 129 -41 147 -41 96 -202 95
-248 -2 -21 -44 -20 -57 5 -173 134 -617 592 -1128 1195 -1332 385 -130 783
-130 1168 0 556 188 990 638 1160 1201 58 191 70 286 70 523 0 160 -4 234 -18
310 -149 820 -811 1426 -1641 1505 -124 11 -186 11 -329 -1z m337 -1242 c73
-33 155 -114 193 -192 29 -59 29 -62 29 -230 0 -163 -1 -172 -27 -227 -141
-301 -564 -307 -711 -9 l-32 66 0 170 c0 165 1 172 27 225 51 104 125 172 229
210 78 29 212 23 292 -13z m28 -1182 c224 -39 446 -158 599 -322 60 -64 180
-234 180 -255 0 -13 -13 -23 -115 -92 -393 -266 -899 -333 -1355 -180 -140 47
-335 152 -450 243 -29 23 -26 33 45 139 157 239 426 416 708 467 98 18 287 18
388 0z"/>
<path d="M669 4700 c-79 -42 -92 -156 -25 -217 41 -38 72 -48 121 -39 99 19
146 141 84 220 -44 57 -115 71 -180 36z"/>
<path d="M2185 2316 c-50 -22 -77 -60 -83 -114 -9 -95 51 -156 146 -149 41 3
59 10 82 32 74 71 57 186 -34 229 -41 19 -71 20 -111 2z"/>
<path d="M2764 2316 c-58 -26 -95 -100 -80 -161 4 -14 22 -43 41 -63 l33 -37
1021 -3 c1129 -3 1060 -6 1102 61 28 45 22 127 -12 163 -51 56 -7 54 -1081 54
-809 -1 -999 -3 -1024 -14z"/>
<path d="M2163 1540 c-98 -59 -77 -214 34 -251 50 -16 98 -3 138 36 71 71 51
176 -42 224 -33 17 -94 13 -130 -9z"/>
<path d="M2764 1550 c-27 -11 -72 -65 -80 -96 -15 -61 23 -135 82 -160 49 -21
1999 -21 2047 0 52 22 79 59 85 114 5 59 -15 105 -61 132 -31 19 -57 20 -1042
19 -555 0 -1019 -4 -1031 -9z"/>
</g>
</svg>
